<?xml version="1.0" standalone="no"?>
<!DOCTYPE svg PUBLIC "-//W3C//DTD SVG 20010904//EN"
 "http://www.w3.org/TR/2001/REC-SVG-20010904/DTD/svg10.dtd">
<svg version="1.0" xmlns="http://www.w3.org/2000/svg"
 width="872.000000pt" height="872.000000pt" viewBox="0 0 872.000000 872.000000"
 preserveAspectRatio="xMidYMid meet">
<metadata>
Created by potrace 1.14, written by Peter Selinger 2001-2017
</metadata>
<g transform="translate(0.000000,872.000000) scale(0.100000,-0.100000)"
fill="#000000" stroke="none">
<path d="M4155 8396 c-5 -2 -30 -9 -55 -17 -91 -26 -204 -117 -255 -204 -11
-19 -67 -114 -125 -212 -58 -98 -110 -187 -116 -198 -9 -16 -58 -100 -104
-175 -5 -8 -63 -107 -130 -220 -67 -113 -125 -212 -130 -220 -5 -8 -45 -76
-88 -150 -44 -74 -131 -223 -194 -330 -234 -397 -278 -472 -278 -477 0 -2 -11
-19 -25 -37 -14 -18 -25 -36 -25 -39 0 -4 -25 -47 -55 -97 -30 -50 -55 -94
-55 -97 0 -4 -6 -14 -14 -22 -7 -9 -26 -38 -41 -66 -15 -27 -56 -98 -91 -156
-35 -59 -64 -111 -64 -117 0 -6 -4 -12 -8 -14 -7 -2 -90 -139 -172 -284 -10
-17 -37 -62 -59 -99 -23 -37 -41 -69 -41 -71 0 -3 -12 -23 -27 -47 -15 -23
-26 -45 -25 -49 1 -5 -3 -8 -8 -8 -6 0 -10 -7 -10 -15 0 -8 -4 -15 -10 -15 -5
0 -10 -5 -10 -11 0 -6 -25 -52 -56 -102 -84 -139 -163 -305 -175 -370 -11 -65
-7 -183 10 -237 21 -66 98 -223 130 -262 8 -10 10 -18 6 -18 -4 0 -1 -8 8 -18
9 -10 27 -36 39 -59 25 -44 133 -229 148 -253 19 -29 191 -323 217 -370 8 -14
23 -38 33 -55 11 -16 23 -36 26 -44 4 -7 45 -76 91 -153 45 -77 83 -143 83
-147 0 -4 7 -16 15 -26 20 -25 149 -245 158 -268 3 -9 10 -17 15 -17 5 0 9 -6
9 -12 1 -13 119 -215 148 -253 8 -10 15 -23 15 -28 0 -5 14 -29 30 -54 17 -24
30 -46 30 -48 0 -3 34 -61 75 -130 41 -69 75 -128 75 -132 0 -3 6 -14 14 -22
7 -9 25 -36 38 -61 47 -85 72 -125 80 -128 4 -2 8 -8 8 -14 0 -5 44 -85 99
-176 54 -92 106 -180 115 -197 9 -16 37 -63 61 -103 25 -41 45 -78 45 -83 0
-5 5 -9 10 -9 6 0 10 -4 10 -10 0 -5 20 -43 45 -83 25 -41 45 -80 45 -86 0 -6
4 -11 10 -11 5 0 12 -11 16 -25 3 -14 10 -25 15 -25 5 0 9 -4 9 -8 0 -18 181
-310 214 -344 206 -216 509 -192 674 55 l25 38 -20 37 c-12 20 -29 51 -40 69
-52 90 -221 383 -244 423 -14 25 -36 61 -47 80 -12 19 -27 46 -34 60 -7 14
-15 27 -19 30 -3 3 -25 41 -49 85 -24 44 -47 81 -52 83 -4 2 -8 8 -8 13 0 4
-22 46 -49 91 -27 46 -58 100 -70 121 -11 20 -31 54 -42 75 -12 20 -29 48 -38
62 -9 14 -22 36 -29 50 -6 14 -16 32 -22 40 -27 41 -350 604 -350 611 0 4 -3
9 -7 11 -5 2 -15 17 -24 33 -9 17 -45 80 -81 141 -35 61 -68 117 -72 125 -4 8
-12 23 -19 34 -25 42 -72 121 -89 150 -10 17 -26 46 -36 65 -9 19 -21 40 -25
45 -4 6 -48 80 -97 165 -49 85 -94 160 -99 167 -6 7 -11 14 -11 17 0 3 -23 43
-50 90 -28 47 -50 88 -50 91 0 4 -13 26 -30 50 -16 24 -30 48 -30 54 0 6 -4
11 -8 11 -4 0 -13 12 -20 28 -6 15 -24 48 -39 73 -16 26 -42 71 -59 100 -17
30 -41 72 -54 94 -69 119 -83 145 -107 195 -30 63 -36 141 -14 186 8 16 21 45
30 64 9 19 21 42 27 50 6 8 24 40 40 70 16 30 32 57 35 60 3 3 23 37 44 75 20
39 42 77 49 85 11 15 21 32 57 98 11 20 31 55 45 77 13 22 29 52 35 68 6 15
14 27 19 27 4 0 14 15 21 32 7 18 42 79 76 136 35 57 63 106 63 108 0 2 18 33
40 69 22 36 40 70 40 75 0 6 5 10 10 10 6 0 10 4 10 9 0 8 63 121 172 306 16
28 32 58 35 68 3 9 9 17 14 17 5 0 9 4 9 10 0 5 21 44 46 87 26 43 60 103 77
133 17 30 34 57 39 58 4 2 8 8 8 14 0 6 20 44 45 85 25 40 45 75 45 78 0 2 27
50 61 107 34 57 71 121 84 143 12 22 52 91 89 154 36 62 66 118 66 122 0 5 5
9 10 9 6 0 10 4 10 9 0 5 79 145 175 311 96 166 175 306 175 311 0 5 5 9 10 9
6 0 10 4 10 8 0 7 42 82 105 190 6 9 28 49 50 87 21 39 63 109 91 157 29 47
50 89 47 92 -4 3 -1 6 6 6 16 0 6 46 -14 66 -7 8 -22 24 -32 37 -40 51 -134
115 -208 142 -21 8 -163 16 -180 11z"/>
<path d="M6081 8385 c-30 -9 -77 -28 -105 -43 -56 -30 -188 -158 -237 -230
-71 -104 -87 -129 -115 -182 -16 -30 -32 -57 -35 -60 -4 -3 -17 -25 -29 -50
-12 -25 -25 -47 -29 -50 -3 -3 -13 -18 -21 -35 -8 -16 -39 -70 -69 -120 -69
-115 -91 -153 -110 -190 -8 -16 -19 -34 -24 -40 -5 -5 -23 -36 -40 -67 -55
-98 -190 -332 -207 -358 -10 -14 -28 -45 -42 -70 -24 -44 -80 -140 -98 -170
-55 -90 -100 -171 -100 -179 0 -6 -4 -11 -10 -11 -5 0 -10 -4 -10 -9 0 -5 -43
-82 -95 -171 -52 -89 -95 -164 -95 -165 0 -2 -22 -40 -50 -85 -27 -45 -50 -84
-50 -86 0 -3 -8 -17 -19 -32 -15 -22 -139 -235 -231 -397 -43 -76 -151 -262
-159 -275 -6 -8 -45 -76 -88 -150 -42 -74 -81 -136 -85 -138 -4 -2 -8 -9 -8
-16 0 -6 -11 -28 -25 -49 -14 -20 -22 -37 -18 -37 4 0 3 -4 -4 -8 -10 -7 -104
-184 -104 -197 0 -2 -9 -26 -20 -52 -21 -47 -31 -82 -46 -153 -9 -40 -8 -208
0 -260 7 -41 15 -75 17 -75 1 0 3 -7 5 -15 13 -59 118 -272 191 -387 19 -29
30 -53 26 -53 -4 0 -2 -4 4 -8 6 -4 21 -25 33 -47 22 -41 60 -107 93 -160 10
-16 23 -41 30 -55 7 -14 15 -27 19 -30 3 -3 25 -41 49 -85 24 -44 46 -82 49
-85 6 -5 49 -81 66 -117 5 -13 13 -23 18 -23 4 0 7 -4 7 -9 0 -5 36 -70 80
-144 44 -75 80 -140 80 -145 0 -5 9 -17 20 -27 10 -9 19 -20 18 -24 -3 -11 25
-61 34 -61 4 0 8 -5 8 -11 0 -6 9 -23 19 -37 10 -15 20 -31 21 -37 2 -5 8 -19
15 -30 7 -11 38 -65 70 -120 32 -55 65 -111 74 -125 8 -14 23 -38 31 -55 40
-73 55 -100 60 -105 3 -3 11 -16 19 -30 8 -14 46 -79 84 -145 38 -66 78 -136
89 -155 11 -19 51 -87 88 -150 37 -63 77 -131 87 -150 11 -19 37 -63 57 -97
20 -34 36 -66 36 -71 0 -6 4 -12 8 -14 7 -3 36 -51 156 -259 12 -20 39 -68 61
-105 22 -38 42 -73 44 -79 2 -5 7 -12 10 -15 3 -3 19 -30 35 -60 56 -108 156
-247 233 -327 95 -99 166 -138 283 -159 37 -6 160 -5 171 1 5 4 21 9 36 11 93
17 234 133 336 276 42 59 233 378 310 518 17 30 34 57 39 58 4 2 8 8 8 13 0 6
32 64 70 129 39 65 70 123 70 129 0 5 4 11 8 13 4 2 21 26 36 53 16 28 40 70
54 95 13 25 32 56 42 70 9 14 20 32 24 40 7 16 12 25 141 245 48 83 97 166
108 185 116 206 323 557 331 562 6 4 8 8 4 8 -4 0 7 24 26 53 18 28 44 72 58
97 57 103 142 247 162 275 11 17 19 30 17 30 -3 0 8 19 22 42 15 24 27 44 27
47 0 2 17 33 38 67 22 35 50 84 64 109 14 25 55 96 92 158 36 62 66 117 66
123 0 5 4 9 9 9 5 0 11 8 14 18 4 9 22 44 42 77 47 80 89 169 123 260 41 109
51 322 19 430 -33 112 -172 401 -199 413 -5 2 -8 8 -8 13 0 5 -11 26 -23 47
-13 20 -35 57 -49 82 -91 162 -153 265 -160 268 -4 2 -8 8 -8 12 0 5 -17 37
-37 72 -21 35 -38 66 -38 70 0 4 -6 13 -12 20 -7 6 -13 18 -13 25 0 7 -4 13
-8 13 -5 0 -14 16 -22 35 -8 19 -17 35 -21 35 -4 0 -9 8 -13 18 -3 9 -16 34
-28 54 -13 21 -36 61 -52 90 -15 29 -34 60 -42 69 -8 8 -14 18 -14 22 0 3 -14
30 -31 59 -18 29 -40 67 -49 83 -10 17 -41 70 -69 118 -28 49 -51 92 -51 97 0
5 -4 10 -8 12 -5 2 -22 28 -39 58 -63 115 -86 156 -103 180 -9 14 -20 32 -23
40 -4 8 -15 29 -26 45 -10 17 -27 46 -38 65 -11 19 -34 59 -52 88 -17 29 -31
57 -31 62 0 6 -4 10 -8 10 -4 0 -13 12 -20 28 -6 15 -20 41 -30 57 -18 28 -35
57 -81 139 -11 19 -76 131 -145 249 -69 119 -126 220 -126 225 0 6 -4 12 -8
14 -4 2 -19 23 -33 48 -14 25 -35 61 -46 80 -123 210 -163 282 -163 290 0 5
-3 10 -7 12 -5 2 -29 35 -55 73 -60 92 -81 117 -155 189 -73 72 -89 86 -102
86 -5 0 -11 4 -13 9 -1 4 -30 18 -63 31 -77 29 -217 36 -294 15z"/>
<path d="M2240 8304 c-153 -45 -225 -227 -150 -375 17 -33 107 -117 128 -120
4 0 16 -3 27 -6 48 -12 141 -6 180 12 118 56 174 169 149 300 -8 42 -64 134
-86 141 -10 3 -18 9 -18 13 0 14 -91 44 -139 46 -25 2 -66 -3 -91 -11z"/>
<path d="M1863 7589 c-174 -31 -269 -228 -184 -384 101 -186 373 -179 467 12
22 45 28 161 11 201 -55 124 -171 192 -294 171z"/>
<path d="M1450 6841 c-8 -5 -18 -8 -22 -5 -26 16 -138 -82 -164 -145 -42 -99
-10 -235 71 -303 60 -51 187 -68 265 -37 84 34 158 138 161 229 4 103 -55 201
-147 245 -44 21 -142 31 -164 16z"/>
<path d="M1088 6135 c-2 -1 -24 -5 -50 -8 -48 -6 -118 -44 -150 -81 -10 -12
-28 -39 -40 -61 -31 -56 -32 -173 -1 -230 25 -47 80 -105 99 -105 8 0 14 -4
14 -9 0 -22 138 -38 196 -22 105 28 188 139 187 250 0 99 -64 202 -148 237
-41 17 -102 34 -107 29z"/>
<path d="M698 5405 c-2 -1 -27 -5 -56 -8 -208 -22 -300 -276 -158 -435 30 -34
97 -71 134 -75 18 -2 34 -6 37 -9 10 -9 103 10 141 30 177 90 187 346 19 452
-29 18 -112 50 -117 45z"/>
<path d="M228 4674 c-2 -1 -15 -5 -30 -8 -70 -12 -157 -91 -182 -163 -22 -66
-14 -162 18 -217 52 -89 142 -137 245 -131 190 10 301 210 212 383 -11 22 -29
46 -38 51 -10 6 -13 11 -8 11 17 1 -78 56 -110 65 -32 8 -102 14 -107 9z"/>
<path d="M599 3937 c-51 -19 -101 -52 -119 -78 -8 -12 -20 -27 -27 -34 -17
-18 -40 -105 -38 -145 4 -107 58 -187 155 -232 89 -40 212 -22 280 43 27 25
67 79 69 92 1 4 1 8 2 10 4 14 11 49 14 82 5 41 -21 145 -36 145 -5 0 -9 5 -9
12 0 20 -82 88 -120 99 -57 18 -132 20 -171 6z"/>
<path d="M1025 3208 c-16 -5 -38 -11 -47 -13 -36 -8 -114 -88 -137 -141 -26
-57 -22 -165 8 -219 48 -86 142 -145 229 -145 52 0 142 26 142 41 0 5 5 9 12
9 6 0 25 15 41 33 123 134 77 353 -90 422 -44 19 -120 25 -158 13z"/>
<path d="M1412 2468 c-52 -19 -147 -102 -137 -118 4 -6 2 -10 -3 -10 -15 0
-30 -76 -26 -135 4 -62 23 -109 62 -152 29 -31 92 -78 92 -68 0 3 9 1 21 -5
11 -7 46 -11 78 -11 200 1 323 209 229 386 -57 107 -197 157 -316 113z"/>
<path d="M1848 1757 c-84 -31 -132 -69 -170 -134 -29 -50 -32 -180 -5 -233 20
-42 82 -111 91 -103 3 4 6 2 6 -4 0 -10 92 -43 126 -45 99 -5 207 60 250 151
26 52 28 161 4 215 -30 71 -100 131 -175 150 -41 11 -102 13 -127 3z"/>
<path d="M2240 1023 c-25 -9 -60 -26 -77 -40 -32 -23 -85 -94 -92 -123 -16
-66 -17 -85 -9 -131 24 -134 115 -211 252 -216 107 -3 195 49 243 145 25 51
25 172 -1 227 -23 49 -86 111 -133 130 -52 22 -131 25 -183 8z"/>
</g>
</svg>
