<svg width="0" height="0" class="hidden">
    <symbol viewBox="0 0 208.83 38.75" xmlns="http://www.w3.org/2000/svg" xmlns:xlink="http://www.w3.org/1999/xlink" id="logotype">
        <path fill="#50c1e9" d="M27.86,39.21a2,2,0,0,0,1.36-.49,6.25,6.25,0,0,0,1.22-1.58l8-13.68A6.69,6.69,0,0,0,39,22.25a3.32,3.32,0,0,0,0-2.2,6.6,6.6,0,0,0-.57-1.2L30.44,5.15a6.38,6.38,0,0,0-1.22-1.57,2.17,2.17,0,0,0-2.72,0,5.78,5.78,0,0,0-1.22,1.57l-8,13.69a7.8,7.8,0,0,0-.56,1.21,3.32,3.32,0,0,0,0,2.2,7.07,7.07,0,0,0,.58,1.21l7.94,13.67a5.58,5.58,0,0,0,1.22,1.59A2.1,2.1,0,0,0,27.86,39.21Zm-8.9,0a1.74,1.74,0,0,0,1-.34,2.59,2.59,0,0,0,.68-.76L11.33,22a3.17,3.17,0,0,1-.23-.45,1,1,0,0,1-.08-.39,1.1,1.1,0,0,1,.08-.4,3.68,3.68,0,0,1,.23-.44L20.67,4.18A2.49,2.49,0,0,0,20,3.44a1.7,1.7,0,0,0-1.06-.34,1.82,1.82,0,0,0-1,.28,2.36,2.36,0,0,0-.79.84L8.41,19.13c-.21.35-.39.7-.57,1.06a2.28,2.28,0,0,0-.21,1,2.32,2.32,0,0,0,.21,1c.18.36.36.71.57,1.05l8.78,14.91a2.53,2.53,0,0,0,.81.85,1.91,1.91,0,0,0,1,.28Zm-8.55-.68a1.44,1.44,0,0,0,.46-.08,1.22,1.22,0,0,0,.38-.26,1.27,1.27,0,0,0,.26-.39,1.24,1.24,0,0,0,.08-.46,1.18,1.18,0,0,0-.34-.84,1.21,1.21,0,0,0-.84-.34,1.17,1.17,0,0,0-.83.34,1.19,1.19,0,0,0-.35.84,1.25,1.25,0,0,0,.09.46,1.11,1.11,0,0,0,.26.39,1,1,0,0,0,.38.26A1.38,1.38,0,0,0,10.41,38.53ZM8.57,35.25a1.19,1.19,0,0,0,.56-.14,1.2,1.2,0,0,0,.62-.92,1.13,1.13,0,0,0-.09-.57,1.25,1.25,0,0,0-.34-.46,1.15,1.15,0,0,0-.51-.24,1.1,1.1,0,0,0-.57,0,1,1,0,0,0-.49.29,1.08,1.08,0,0,0-.26.38,1.17,1.17,0,0,0-.09.45,1.22,1.22,0,0,0,.09.46,1.08,1.08,0,0,0,.26.38,1.05,1.05,0,0,0,.37.25A1.2,1.2,0,0,0,8.57,35.25ZM6.73,32a1.19,1.19,0,0,0,.66-.2,1.24,1.24,0,0,0,.43-.53,1.22,1.22,0,0,0,.07-.68,1.15,1.15,0,0,0-.33-.6,1.17,1.17,0,0,0-1.64,0,1.2,1.2,0,0,0-.35.82,1.17,1.17,0,0,0,.71,1.09A1.17,1.17,0,0,0,6.73,32ZM4.86,28.74a1.13,1.13,0,0,0,.45-.09,1,1,0,0,0,.38-.26A1.22,1.22,0,0,0,6,28,1.13,1.13,0,0,0,6,27.56,1.17,1.17,0,0,0,6,27.11a1,1,0,0,0-.26-.39,1,1,0,0,0-.38-.26,1.13,1.13,0,0,0-.45-.09,1.2,1.2,0,0,0-.45.09,1.22,1.22,0,0,0-.38.26,1.2,1.2,0,0,0-.35.84,1.21,1.21,0,0,0,.35.83A1.18,1.18,0,0,0,4.86,28.74ZM3,25.44a1.12,1.12,0,0,0,.44-.09,1,1,0,0,0,.38-.25,1.15,1.15,0,0,0,.35-.84,1.17,1.17,0,0,0-.09-.45,1.22,1.22,0,0,0-.26-.38,1.07,1.07,0,0,0-.6-.32,1.13,1.13,0,0,0-.68.06,1.19,1.19,0,0,0-.53.44,1.23,1.23,0,0,0-.19.65,1.22,1.22,0,0,0,.09.46,1,1,0,0,0,.25.38,1,1,0,0,0,.39.25A1.13,1.13,0,0,0,3,25.44ZM1.18,22.18a1.18,1.18,0,0,0,0-2.36,1.22,1.22,0,0,0-.84.35,1.18,1.18,0,0,0,0,1.66A1.22,1.22,0,0,0,1.18,22.18ZM3,18.91a1,1,0,0,0,.44-.08,1,1,0,0,0,.38-.26,1.22,1.22,0,0,0,.26-.38,1.17,1.17,0,0,0,.09-.45,1.15,1.15,0,0,0-.35-.84,1.18,1.18,0,0,0-1.66,0,1.22,1.22,0,0,0-.26,1.29,1.19,1.19,0,0,0,.44.53A1.09,1.09,0,0,0,3,18.91Zm1.82-3.28a1.06,1.06,0,0,0,.55-.13,1.24,1.24,0,0,0,.43-.39A1.13,1.13,0,0,0,6,14.58,1.22,1.22,0,0,0,6,14a1.11,1.11,0,0,0-.34-.46,1.26,1.26,0,0,0-.52-.25,1.11,1.11,0,0,0-.57,0,1.12,1.12,0,0,0-.49.29,1.15,1.15,0,0,0-.35.84,1.17,1.17,0,0,0,.09.45,1.25,1.25,0,0,0,.64.64,1.38,1.38,0,0,0,.45.08Zm1.87-3.24a1.17,1.17,0,0,0,1.09-.73,1.15,1.15,0,0,0-.26-1.28,1.15,1.15,0,0,0-.82-.32,1.16,1.16,0,0,0-1.16,1.16A1.15,1.15,0,0,0,5.9,12a1.22,1.22,0,0,0,.38.26,1.17,1.17,0,0,0,.45.09Zm1.84-3.3a1.22,1.22,0,0,0,.66-.2,1.18,1.18,0,0,0,.43-.53,1.21,1.21,0,0,0,.07-.68,1.3,1.3,0,0,0-.32-.6,1.21,1.21,0,0,0-.84-.36,1.2,1.2,0,0,0-.84.35,1.22,1.22,0,0,0-.26.38,1,1,0,0,0-.08.46,1.17,1.17,0,0,0,.09.45.94.94,0,0,0,.27.38A1.08,1.08,0,0,0,8.12,9,1.2,1.2,0,0,0,8.57,9.09Zm1.84-3.27a1.21,1.21,0,0,0,.46-.08,1.25,1.25,0,0,0,.64-.64,1.44,1.44,0,0,0,.08-.46,1.32,1.32,0,0,0-.08-.44,1.12,1.12,0,0,0-.26-.38,1.22,1.22,0,0,0-.38-.26,1.2,1.2,0,0,0-.91,0,1.22,1.22,0,0,0-.38.26,1.18,1.18,0,0,0,0,1.66,1.22,1.22,0,0,0,.38.26,1,1,0,0,0,.45.08Z" transform="translate(0 -0.46)"/>
        <path fill="currentcolor" d="M77.27,13V31.55H73.09V13.64c0-.56-.09-.91-.28-1.07a1.43,1.43,0,0,0-1.06-.28H70.08c-1,0-1.49.55-1.49,1.63V31.55H64.41V13.64a1.47,1.47,0,0,0-.27-1.07A1.66,1.66,0,0,0,63,12.29H61.4a1.65,1.65,0,0,0-1.21.38,1.92,1.92,0,0,0-.32,1.25V31.55H55.69V8.91h4.18v1.81a2.67,2.67,0,0,1,2.87-1.81h1.63c2,0,3.26.69,3.85,2.08.37-1.39,1.45-2.08,3.25-2.08h1.62C75.88,8.91,77.27,10.28,77.27,13Zm14,13.5a1.76,1.76,0,0,1-.37,1.25,1.49,1.49,0,0,1-1.16.37H88.08A1.83,1.83,0,0,1,87,27.93a1.58,1.58,0,0,1-.28-1.11V8.91H82.52V27.47q0,4.08,4.17,4.08h1.67a2.68,2.68,0,0,0,2.88-1.81v1.81h4.17V8.91H91.24Zm9.72,5h4.18V.51H101ZM115.2,5.06H111V8.91h-2.13v3.38H111V27.47q0,4.08,4.36,4.08h3V28h-1.76a1.92,1.92,0,0,1-1.12-.23,1.92,1.92,0,0,1-.23-1.12V12.29h3.11V8.91H115.2Zm7.06,26.49h4.17V8.91h-4.17Zm-.1-27h4.36V.46h-4.36ZM140.4,8.91H136c-2.88,0-4.32,1.37-4.32,4.13V27.47q0,4.08,4.32,4.08h4.41c2.9,0,4.36-1.36,4.36-4.08V24.4h-4.13v2.42a1.58,1.58,0,0,1-.28,1.11,1.83,1.83,0,0,1-1.11.23h-2a1.79,1.79,0,0,1-1.11-.23,1.58,1.58,0,0,1-.28-1.11V13.64c0-.56.09-.91.28-1.07a1.61,1.61,0,0,1,1.11-.28h2a1.65,1.65,0,0,1,1.11.28c.19.16.28.51.28,1.07v2.41h4.13V13C144.76,10.28,143.3,8.91,140.4,8.91Zm17.95,0h-1.63a2.67,2.67,0,0,0-2.87,1.81V.51h-4.18v31h4.18V13.92a1.86,1.86,0,0,1,.32-1.25,1.65,1.65,0,0,1,1.21-.38H157a1.61,1.61,0,0,1,1.11.28c.19.16.28.51.28,1.07V31.55h4.18V13C162.57,10.28,161.16,8.91,158.35,8.91Zm18.16,0h4.18V31.55h-4.18V29.74a2.67,2.67,0,0,1-2.87,1.81H172q-4.17,0-4.17-4.08V13c0-2.76,1.39-4.13,4.17-4.13h1.68a2.67,2.67,0,0,1,2.87,1.81Zm0,5a1.7,1.7,0,0,0-.37-1.25,1.48,1.48,0,0,0-1.16-.38h-1.62a1.66,1.66,0,0,0-1.12.28,1.46,1.46,0,0,0-.28,1.07V26.82a1.63,1.63,0,0,0,.28,1.11,1.84,1.84,0,0,0,1.12.23H175a1.48,1.48,0,0,0,1.16-.37,1.71,1.71,0,0,0,.37-1.25Zm9.63-9.33h4.37V.46h-4.37Zm.1,27h4.17V8.91h-4.17ZM204.61,8.91H203a2.68,2.68,0,0,0-2.88,1.81V8.91h-4.18V31.55h4.18V13.92a1.92,1.92,0,0,1,.32-1.25,1.65,1.65,0,0,1,1.21-.38h1.63a1.65,1.65,0,0,1,1.11.28,1.46,1.46,0,0,1,.28,1.07V31.55h4.17V13C208.83,10.28,207.43,8.91,204.61,8.91Z" transform="translate(0 -0.46)"/>
    </symbol>
    <symbol viewBox="0 0 24 24" xmlns="http://www.w3.org/2000/svg" xmlns:xlink="http://www.w3.org/1999/xlink" fill="none" stroke="currentcolor" stroke-width="1.5" stroke-linecap="round" stroke-linejoin="round" id="icon-user">
        <path d="M20 21v-2a4 4 0 0 0-4-4H8a4 4 0 0 0-4 4v2"></path>
        <circle cx="12" cy="7" r="4"></circle>
    </symbol>
    <symbol viewBox="0 0 24 24" xmlns="http://www.w3.org/2000/svg" xmlns:xlink="http://www.w3.org/1999/xlink" fill="none" stroke="currentcolor" stroke-width="1.5" stroke-linecap="round" stroke-linejoin="round" id="icon-lock">
        <rect x="3" y="11" width="18" height="11" rx="2" ry="2"></rect>
        <path d="M7 11V7a5 5 0 0 1 10 0v4"></path>
    </symbol>
</svg>